<?xml version="1.0" encoding="UTF-8"?>
<!DOCTYPE svg PUBLIC "-//W3C//DTD SVG 1.1//EN" "http://www.w3.org/Graphics/SVG/1.1/DTD/svg11.dtd">
<svg xmlns="http://www.w3.org/2000/svg" version="1.1" width="2000px" height="2000px" style="shape-rendering:geometricPrecision; text-rendering:geometricPrecision; image-rendering:optimizeQuality; fill-rule:evenodd; clip-rule:evenodd" xmlns:xlink="http://www.w3.org/1999/xlink">
<g><path style="opacity:0.999" fill="#2e3148" d="M 955.5,-0.5 C 984.833,-0.5 1014.17,-0.5 1043.5,-0.5C 1297.13,14.3576 1515.46,108.858 1698.5,283C 1883.65,468.39 1983.98,692.557 1999.5,955.5C 1999.5,984.833 1999.5,1014.17 1999.5,1043.5C 1984.64,1297.13 1890.14,1515.47 1716,1698.5C 1530.61,1883.65 1306.44,1983.98 1043.5,1999.5C 1014.17,1999.5 984.833,1999.5 955.5,1999.5C 701.867,1984.64 483.534,1890.14 300.5,1716C 115.562,1530.91 15.2291,1307.07 -0.5,1044.5C -0.5,1014.5 -0.5,984.5 -0.5,954.5C 15.2278,691.932 115.561,468.099 300.5,283C 483.534,108.86 701.867,14.3604 955.5,-0.5 Z"/></g>
<g><path style="opacity:1" fill="#6e728f" d="M 1151.5,439.5 C 1166.22,521.299 1177.22,603.632 1184.5,686.5C 1242.24,659.296 1300.91,634.296 1360.5,611.5C 1361.17,605.681 1361.83,600.014 1362.5,594.5C 1359.75,615.86 1365.75,634.194 1380.5,649.5C 1315.28,673.189 1251.12,699.522 1188,728.5C 1191.26,782.104 1193.93,835.771 1196,889.5C 1242.54,918.713 1288.54,948.713 1334,979.5C 1408.06,926.88 1479.22,870.546 1547.5,810.5C 1581.73,780.105 1615.23,748.772 1648,716.5C 1674.12,689.394 1696.78,659.727 1716,627.5C 1722.94,615.364 1726.6,602.364 1727,588.5C 1725.43,584.173 1722.59,581.007 1718.5,579C 1712.24,577.345 1705.91,576.012 1699.5,575C 1669.57,573.085 1639.9,575.085 1610.5,581C 1566.62,589.97 1523.29,600.803 1480.5,613.5C 1482.56,598.822 1479.89,585.155 1472.5,572.5C 1523.78,556.098 1576.11,544.265 1629.5,537C 1659.29,533.126 1688.96,533.793 1718.5,539C 1733.87,542.265 1746.7,549.765 1757,561.5C 1764.7,572.31 1767.7,584.31 1766,597.5C 1763.4,616.312 1757.4,633.979 1748,650.5C 1734.06,674.059 1718.39,696.392 1701,717.5C 1657.5,767.502 1610.33,813.502 1559.5,855.5C 1497.65,907.411 1433.65,956.411 1367.5,1002.5C 1433.18,1048.84 1496.85,1097.84 1558.5,1149.5C 1610.4,1193.23 1658.57,1240.9 1703,1292.5C 1719.23,1312.73 1733.9,1334.07 1747,1356.5C 1754.84,1371.03 1760.51,1386.37 1764,1402.5C 1767.67,1436.15 1753.17,1457.32 1720.5,1466C 1697.1,1471.08 1673.43,1472.75 1649.5,1471C 1615.07,1467.89 1581.07,1462.23 1547.5,1454C 1500.2,1442.18 1453.53,1428.01 1407.5,1411.5C 1331.93,1383.55 1257.6,1352.55 1184.5,1318.5C 1179.9,1361.18 1175.07,1403.85 1170,1446.5C 1164.71,1483.92 1158.87,1521.25 1152.5,1558.5C 1141.38,1622.33 1125.21,1684.99 1104,1746.5C 1094.31,1773.59 1082.31,1799.59 1068,1824.5C 1057.62,1841.55 1044.45,1856.05 1028.5,1868C 1009.06,1878.58 990.059,1877.92 971.5,1866C 955.075,1853.24 941.908,1837.74 932,1819.5C 918.488,1795.14 907.155,1769.81 898,1743.5C 885.469,1707.04 874.969,1670.04 866.5,1632.5C 880.166,1634.72 893.166,1632.72 905.5,1626.5C 916.419,1676.42 932.252,1724.76 953,1771.5C 963.212,1793.44 976.045,1813.61 991.5,1832C 999.301,1837.01 1006.47,1836.17 1013,1829.5C 1027.16,1813.2 1038.82,1795.2 1048,1775.5C 1067.17,1731.81 1082.51,1686.81 1094,1640.5C 1099.38,1616.85 1104.55,1593.18 1109.5,1569.5C 1125.21,1479.99 1137.04,1389.99 1145,1299.5C 1096.53,1275.69 1048.53,1251.03 1001,1225.5C 954.64,1250.51 907.64,1274.51 860,1297.5C 864.015,1368.5 871.182,1439.16 881.5,1509.5C 883.099,1509.23 884.432,1509.57 885.5,1510.5C 870.423,1508.35 856.756,1511.69 844.5,1520.5C 833.658,1452.78 824.991,1384.78 818.5,1316.5C 744.005,1351.55 668.005,1382.89 590.5,1410.5C 535.852,1429.88 480.186,1445.72 423.5,1458C 392.021,1464.61 360.188,1468.11 328,1468.5C 308.676,1468.81 289.843,1465.98 271.5,1460C 241.759,1446.35 230.926,1423.51 239,1391.5C 246.63,1366.91 257.964,1344.24 273,1323.5C 306.787,1277.7 344.954,1235.53 387.5,1197C 405.028,1181.63 422.361,1166.13 439.5,1150.5C 502.735,1097.43 568.401,1047.59 636.5,1001C 577.853,959.517 520.52,916.351 464.5,871.5C 478.566,865.31 488.9,855.31 495.5,841.5C 495.859,843.371 496.859,844.871 498.5,846C 554.876,891.051 612.376,934.551 671,976.5C 715.808,946.758 761.141,917.758 807,889.5C 809.094,836.785 811.927,784.119 815.5,731.5C 815.167,730.5 814.833,729.5 814.5,728.5C 731.893,686.692 646.893,650.692 559.5,620.5C 548.439,616.201 537.106,612.368 525.5,609C 479.485,595.163 432.818,584.163 385.5,576C 359.578,572.937 333.578,571.937 307.5,573C 301.15,573.892 294.816,574.892 288.5,576C 280.985,579.506 277.818,585.339 279,593.5C 283.684,610.227 290.684,625.893 300,640.5C 330.125,686.15 365.625,727.483 406.5,764.5C 394.781,773.945 387.114,785.945 383.5,800.5C 368.298,783.794 352.465,767.461 336,751.5C 307.282,721.364 281.948,688.698 260,653.5C 250.985,637.79 244.318,621.123 240,603.5C 234.296,571.874 246.463,550.374 276.5,539C 292.943,534.038 309.776,531.538 327,531.5C 370.176,532.573 412.676,538.406 454.5,549C 499.991,560.774 544.991,574.274 589.5,589.5C 667.232,617.525 743.565,649.191 818.5,684.5C 826.277,602.397 837.277,520.73 851.5,439.5C 862.695,380.379 877.529,322.046 896,264.5C 906.706,233.425 920.372,203.758 937,175.5C 942.605,166.628 948.939,158.294 956,150.5C 986.967,119.547 1017.63,119.881 1048,151.5C 1064.11,171.315 1077.44,192.982 1088,216.5C 1110.02,268.885 1127.02,322.885 1139,378.5C 1143.49,398.774 1147.65,419.107 1151.5,439.5 Z"/></g>
<g><path style="opacity:1" fill="#2e3148" d="M 1106.5,428.5 C 1036.86,416.883 967.198,416.549 897.5,427.5C 908.332,367.184 924.165,308.184 945,250.5C 955.342,221.299 970.176,194.799 989.5,171C 997.167,165 1004.83,165 1012.5,171C 1023.26,181.421 1032.09,193.255 1039,206.5C 1055.68,239.534 1069.01,273.867 1079,309.5C 1089.59,348.84 1098.75,388.507 1106.5,428.5 Z"/></g>
<g><path style="opacity:1" fill="#1b1e36" d="M 1106.5,428.5 C 1126.12,519.48 1139.78,611.48 1147.5,704.5C 1098.58,727.461 1050.25,751.794 1002.5,777.5C 955.126,751.812 907.126,727.145 858.5,703.5C 858.167,702 857.833,700.5 857.5,699C 865.196,625.543 875.029,552.377 887,479.5C 890.18,462.06 893.68,444.726 897.5,427.5C 967.198,416.549 1036.86,416.883 1106.5,428.5 Z"/></g>
<g><path style="opacity:1" fill="#1b1e36" d="M 851.5,439.5 C 837.277,520.73 826.277,602.397 818.5,684.5C 743.565,649.191 667.232,617.525 589.5,589.5C 662.896,516.19 750.062,465.857 851,438.5C 851.399,438.728 851.565,439.062 851.5,439.5 Z"/></g>
<g><path style="opacity:1" fill="#1b1e36" d="M 1151.5,439.5 C 1236.69,462.913 1312.35,503.247 1378.5,560.5C 1369.95,570.262 1364.62,581.595 1362.5,594.5C 1361.83,600.014 1361.17,605.681 1360.5,611.5C 1300.91,634.296 1242.24,659.296 1184.5,686.5C 1177.22,603.632 1166.22,521.299 1151.5,439.5 Z"/></g>
<g><path style="opacity:1" fill="#b6b8c7" d="M 1472.5,572.5 C 1479.89,585.155 1482.56,598.822 1480.5,613.5C 1478.12,627.921 1471.79,640.254 1461.5,650.5C 1434.18,672.145 1407.18,671.812 1380.5,649.5C 1365.75,634.194 1359.75,615.86 1362.5,594.5C 1364.62,581.595 1369.95,570.262 1378.5,560.5C 1401.97,539.449 1427.3,536.949 1454.5,553C 1461.75,558.417 1467.75,564.917 1472.5,572.5 Z"/></g>
<g><path style="opacity:1" fill="#2e3148" d="M 559.5,620.5 C 523.344,662.702 494.011,709.369 471.5,760.5C 448.941,748.681 427.274,750.014 406.5,764.5C 365.625,727.483 330.125,686.15 300,640.5C 290.684,625.893 283.684,610.227 279,593.5C 277.818,585.339 280.985,579.506 288.5,576C 294.816,574.892 301.15,573.892 307.5,573C 333.578,571.937 359.578,572.937 385.5,576C 432.818,584.163 479.485,595.163 525.5,609C 537.106,612.368 548.439,616.201 559.5,620.5 Z"/></g>
<g><path style="opacity:1" fill="#2e3148" d="M 1547.5,810.5 C 1528.06,752.949 1500.23,699.949 1464,651.5C 1463.33,650.748 1462.5,650.414 1461.5,650.5C 1471.79,640.254 1478.12,627.921 1480.5,613.5C 1523.29,600.803 1566.62,589.97 1610.5,581C 1639.9,575.085 1669.57,573.085 1699.5,575C 1705.91,576.012 1712.24,577.345 1718.5,579C 1722.59,581.007 1725.43,584.173 1727,588.5C 1726.6,602.364 1722.94,615.364 1716,627.5C 1696.78,659.727 1674.12,689.394 1648,716.5C 1615.23,748.772 1581.73,780.105 1547.5,810.5 Z"/></g>
<g><path style="opacity:1" fill="#1b1e36" d="M 559.5,620.5 C 646.893,650.692 731.893,686.692 814.5,728.5C 814.833,729.5 815.167,730.5 815.5,731.5C 811.927,784.119 809.094,836.785 807,889.5C 761.141,917.758 715.808,946.758 671,976.5C 612.376,934.551 554.876,891.051 498.5,846C 496.859,844.871 495.859,843.371 495.5,841.5C 508.408,808.107 500.408,781.107 471.5,760.5C 494.011,709.369 523.344,662.702 559.5,620.5 Z"/></g>
<g><path style="opacity:1" fill="#1b1e36" d="M 1380.5,649.5 C 1407.18,671.812 1434.18,672.145 1461.5,650.5C 1462.5,650.414 1463.33,650.748 1464,651.5C 1500.23,699.949 1528.06,752.949 1547.5,810.5C 1479.22,870.546 1408.06,926.88 1334,979.5C 1288.54,948.713 1242.54,918.713 1196,889.5C 1193.93,835.771 1191.26,782.104 1188,728.5C 1251.12,699.522 1315.28,673.189 1380.5,649.5 Z"/></g>
<g><path style="opacity:1" fill="#1b1e36" d="M 1150.5,744.5 C 1151.8,746.223 1152.47,748.39 1152.5,751C 1154.43,780.495 1156.26,809.995 1158,839.5C 1158.83,848.518 1158.67,857.518 1157.5,866.5C 1120.33,843.743 1082.66,821.743 1044.5,800.5C 1078.69,779.738 1114.02,761.071 1150.5,744.5 Z"/></g>
<g><path style="opacity:1" fill="#1b1e36" d="M 849.5,863.5 C 848.506,854.014 848.173,844.348 848.5,834.5C 847.893,805.358 849.56,776.358 853.5,747.5C 888.64,764.902 923.306,783.069 957.5,802C 921.08,821.956 885.08,842.456 849.5,863.5 Z"/></g>
<g><path style="opacity:1" fill="#b6b8c7" d="M 471.5,760.5 C 500.408,781.107 508.408,808.107 495.5,841.5C 488.9,855.31 478.566,865.31 464.5,871.5C 454.174,875.087 443.508,876.421 432.5,875.5C 404.588,869.087 388.088,851.754 383,823.5C 382.233,815.785 382.4,808.118 383.5,800.5C 387.114,785.945 394.781,773.945 406.5,764.5C 427.274,750.014 448.941,748.681 471.5,760.5 Z"/></g>
<g><path style="opacity:1" fill="#1b1e36" d="M 999.5,824.5 C 1053.84,853.417 1107.34,883.751 1160,915.5C 1160.86,974.842 1160.53,1034.18 1159,1093.5C 1121.83,1115.33 1084.67,1137.17 1047.5,1159C 1032.18,1167.58 1016.68,1175.74 1001,1183.5C 949.748,1156.04 899.415,1127.04 850,1096.5C 847.812,1035.51 847.312,974.511 848.5,913.5C 898.612,883.372 948.946,853.705 999.5,824.5 Z"/></g>
<g><path style="opacity:1" fill="#4d516c" d="M 848.5,834.5 C 848.173,844.348 848.506,854.014 849.5,863.5C 849.44,864.043 849.107,864.376 848.5,864.5C 847.177,854.341 847.177,844.341 848.5,834.5 Z"/></g>
<g><path style="opacity:1" fill="#1b1e36" d="M 1559.5,855.5 C 1560.5,855.414 1561.33,855.748 1562,856.5C 1585.88,953.987 1585.22,1051.32 1560,1148.5C 1559.62,1149.06 1559.12,1149.39 1558.5,1149.5C 1496.85,1097.84 1433.18,1048.84 1367.5,1002.5C 1433.65,956.411 1497.65,907.411 1559.5,855.5 Z"/></g>
<g><path style="opacity:1" fill="#1b1e36" d="M 464.5,871.5 C 520.52,916.351 577.853,959.517 636.5,1001C 568.401,1047.59 502.735,1097.43 439.5,1150.5C 415.493,1059.44 413.16,967.768 432.5,875.5C 443.508,876.421 454.174,875.087 464.5,871.5 Z"/></g>
<g><path style="opacity:1" fill="#b6b8c7" d="M 987.5,896.5 C 1037.68,894.157 1073.51,915.49 1095,960.5C 1110.43,1005.8 1100.93,1044.97 1066.5,1078C 1034.32,1102.9 998.988,1108.57 960.5,1095C 923.764,1078.59 902.597,1050.42 897,1010.5C 894.477,967.714 910.977,934.547 946.5,911C 959.484,903.823 973.15,898.989 987.5,896.5 Z"/></g>
<g><path style="opacity:1" fill="#1b1e36" d="M 1196.5,936.5 C 1216.97,949.24 1237.64,961.74 1258.5,974C 1272.56,983.355 1286.22,993.189 1299.5,1003.5C 1266.04,1026.62 1232.04,1048.95 1197.5,1070.5C 1196.5,1025.84 1196.17,981.172 1196.5,936.5 Z"/></g>
<g><path style="opacity:1" fill="#1b1e36" d="M 805.5,939.5 C 806.831,982.335 806.831,1025.34 805.5,1068.5C 772.596,1047.25 740.263,1025.25 708.5,1002.5C 740.581,981.08 772.915,960.08 805.5,939.5 Z"/></g>
<g><path style="opacity:1" fill="#1b1e36" d="M 559.5,1378.5 C 512.3,1323.14 476.633,1260.81 452.5,1191.5C 481.772,1165.4 512.106,1140.56 543.5,1117C 585.49,1085.34 628.49,1055.18 672.5,1026.5C 717.24,1056.06 762.407,1085.06 808,1113.5C 809.702,1167.54 812.202,1221.54 815.5,1275.5C 741.382,1308.38 666.382,1339.21 590.5,1368C 580.255,1371.8 569.921,1375.3 559.5,1378.5 Z"/></g>
<g><path style="opacity:1" fill="#1b1e36" d="M 1545.5,1194.5 C 1521.78,1263 1486.11,1324 1438.5,1377.5C 1353.39,1348.95 1270.06,1315.95 1188.5,1278.5C 1188.17,1276.33 1187.83,1274.17 1187.5,1272C 1190.76,1219.19 1193.59,1166.35 1196,1113.5C 1241.86,1085.24 1287.19,1056.24 1332,1026.5C 1397.05,1072.79 1460.21,1121.62 1521.5,1173C 1529.4,1180.4 1537.4,1187.57 1545.5,1194.5 Z"/></g>
<g><path style="opacity:1" fill="#1b1e36" d="M 1155.5,1137.5 C 1156.82,1140.09 1157.48,1143.09 1157.5,1146.5C 1155.38,1184.56 1152.54,1222.56 1149,1260.5C 1112.17,1242.67 1075.67,1224.17 1039.5,1205C 1078.72,1183.23 1117.39,1160.73 1155.5,1137.5 Z"/></g>
<g><path style="opacity:1" fill="#1b1e36" d="M 851.5,1140.5 C 887.948,1161.9 924.615,1183.06 961.5,1204C 927.313,1222.22 892.646,1239.39 857.5,1255.5C 855.931,1249.63 855.098,1243.63 855,1237.5C 853.334,1205.18 852.167,1172.85 851.5,1140.5 Z"/></g>
<g><path style="opacity:1" fill="#2e3148" d="M 452.5,1191.5 C 476.633,1260.81 512.3,1323.14 559.5,1378.5C 499.077,1400.21 437.077,1415.71 373.5,1425C 352.878,1427.15 332.212,1427.82 311.5,1427C 303.362,1426.51 295.362,1425.18 287.5,1423C 279.985,1420.82 276.318,1415.82 276.5,1408C 277.324,1401.86 279.158,1396.03 282,1390.5C 294.497,1364.82 309.497,1340.82 327,1318.5C 365.297,1272.7 407.131,1230.37 452.5,1191.5 Z"/></g>
<g><path style="opacity:1" fill="#2e3148" d="M 1545.5,1194.5 C 1594.5,1236 1639.66,1281.33 1681,1330.5C 1695.24,1348.75 1707.91,1368.09 1719,1388.5C 1721.53,1394.42 1723.86,1400.42 1726,1406.5C 1727.89,1413.55 1726.05,1419.38 1720.5,1424C 1709.48,1429.34 1697.82,1432 1685.5,1432C 1664.7,1432.77 1644.03,1431.43 1623.5,1428C 1583.1,1421.32 1543.43,1411.65 1504.5,1399C 1482.23,1392.3 1460.23,1385.13 1438.5,1377.5C 1486.11,1324 1521.78,1263 1545.5,1194.5 Z"/></g>
<g><path style="opacity:1" fill="#1b1e36" d="M 1109.5,1569.5 C 1052.82,1579.72 995.818,1582.05 938.5,1576.5C 938.813,1572.96 938.479,1569.62 937.5,1566.5C 933.626,1535.29 916.293,1516.63 885.5,1510.5C 884.432,1509.57 883.099,1509.23 881.5,1509.5C 871.182,1439.16 864.015,1368.5 860,1297.5C 907.64,1274.51 954.64,1250.51 1001,1225.5C 1048.53,1251.03 1096.53,1275.69 1145,1299.5C 1137.04,1389.99 1125.21,1479.99 1109.5,1569.5 Z"/></g>
<g><path style="opacity:1" fill="#1b1e36" d="M 844.5,1520.5 C 833.431,1528.25 825.764,1538.58 821.5,1551.5C 732.945,1522.85 655.945,1475.85 590.5,1410.5C 668.005,1382.89 744.005,1351.55 818.5,1316.5C 824.991,1384.78 833.658,1452.78 844.5,1520.5 Z"/></g>
<g><path style="opacity:1" fill="#1b1e36" d="M 1407.5,1411.5 C 1335.83,1482.86 1250.83,1531.86 1152.5,1558.5C 1158.87,1521.25 1164.71,1483.92 1170,1446.5C 1175.07,1403.85 1179.9,1361.18 1184.5,1318.5C 1257.6,1352.55 1331.93,1383.55 1407.5,1411.5 Z"/></g>
<g><path style="opacity:1" fill="#b6b8c7" d="M 885.5,1510.5 C 916.293,1516.63 933.626,1535.29 937.5,1566.5C 938.339,1592.83 927.672,1612.83 905.5,1626.5C 893.166,1632.72 880.166,1634.72 866.5,1632.5C 831.805,1621.25 815.972,1597.25 819,1560.5C 819.685,1557.42 820.519,1554.42 821.5,1551.5C 825.764,1538.58 833.431,1528.25 844.5,1520.5C 856.756,1511.69 870.423,1508.35 885.5,1510.5 Z"/></g>
<g><path style="opacity:1" fill="#2e3148" d="M 937.5,1566.5 C 938.479,1569.62 938.813,1572.96 938.5,1576.5C 995.818,1582.05 1052.82,1579.72 1109.5,1569.5C 1104.55,1593.18 1099.38,1616.85 1094,1640.5C 1082.51,1686.81 1067.17,1731.81 1048,1775.5C 1038.82,1795.2 1027.16,1813.2 1013,1829.5C 1006.47,1836.17 999.301,1837.01 991.5,1832C 976.045,1813.61 963.212,1793.44 953,1771.5C 932.252,1724.76 916.419,1676.42 905.5,1626.5C 927.672,1612.83 938.339,1592.83 937.5,1566.5 Z"/></g>
</svg>
